# xmcd CD database file
#
# Track frame offsets:
#	150
#	20685
#	45482
#	60235
#	80410
#	100077
#	122482
#	139827
#	162334
#	184587
#	202442
#	230045
#	246770
#	265770
#	281297
#	300577
#
# Disc length: 4227 seconds
#
# Revision: 0
# Processed by: cddbd v1.4PL0 Copyright (c) Steve Scherf et al.
# Submitted via: CDex 1.50beta10
#
DISCID=d7108110
DTITLE=Milwaukee Slim - Lemmon Avenue
DYEAR=1995
DGENRE=Blues
TTITLE0=Lemmon Avenue
TTITLE1=Don't Want You No More
TTITLE2=Cleo
TTITLE3=I'm Going To Leave You
TTITLE4=C. C. Rider
TTITLE5=Standing On The Outside Crying
TTITLE6=She's Acting Funny
TTITLE7=Rock Me
TTITLE8=Sweet Little Angel
TTITLE9=You Got Me Thinkin'
TTITLE10=No Use Waitin'
TTITLE11=I'm A Legend
TTITLE12=Double Trouble Blues
TTITLE13=Mean and Evil Woman
TTITLE14=Miss R. J.
TTITLE15=Mean Old World
EXTD=YEAR: 1995
EXTT0=
EXTT1=
EXTT2=
EXTT3=
EXTT4=
EXTT5=
EXTT6=
EXTT7=
EXTT8=
EXTT9=
EXTT10=
EXTT11=
EXTT12=
EXTT13=
EXTT14=
EXTT15=
PLAYORDER=
